<svg xmlns="http://www.w3.org/2000/svg" viewBox="0 0 1024 1024" width="1024" height="1024">
  <path d="M525.31 286.33 L525.48 286.64 L525.63 286.96 L525.78 287.28 L525.92 287.61 L526.05 287.95 L526.17 288.29 L526.29 288.64 L526.40 289.00 L526.50 289.36 L526.59 289.73 L526.68 290.10 L526.75 290.48 L526.82 290.86 L526.88 291.25 L526.93 291.64 L526.97 292.03 L527.00 292.44 L527.02 292.84 L527.03 293.25 L527.03 293.66 L527.02 294.08 L527.01 294.49 L526.98 294.92 L526.94 295.34 L526.89 295.77 L526.83 296.20 L526.77 296.63 L526.69 297.06 L526.60 297.49 L526.50 297.93 L526.38 298.37 L526.26 298.80 L526.13 299.24 L525.98 299.68 L525.83 300.12 L525.66 300.56 L525.49 301.00 L525.30 301.43 L525.10 301.87 L524.89 302.31 L524.66 302.74 L524.43 303.17 L524.19 303.60 L523.93 304.03 L523.67 304.46 L523.39 304.88 L523.10 305.30 L522.80 305.72 L522.49 306.13 L522.17 306.54 L521.83 306.95 L521.49 307.35 L521.13 307.74 L520.77 308.14 L520.39 308.52 L520.00 308.91 L519.60 309.28 L519.19 309.65 L518.77 310.02 L518.34 310.37 L517.90 310.73 L517.45 311.07 L516.99 311.41 L516.52 311.74 L516.04 312.06 L515.55 312.38 L515.05 312.68 L514.54 312.98 L514.02 313.27 L513.49 313.55 L512.95 313.82 L512.40 314.09 L511.85 314.34 L511.28 314.58 L510.71 314.82 L510.13 315.04 L509.54 315.26 L508.94 315.46 L508.34 315.65 L507.73 315.83 L507.11 316.00 L506.48 316.16 L505.85 316.31 L505.21 316.44 L504.56 316.56 L503.91 316.68 L503.25 316.77 L502.58 316.86 L501.91 316.93 L501.23 316.99 L500.55 317.04 L499.87 317.08 L499.18 317.10 L498.48 317.10 L497.78 317.10 L497.08 317.08 L496.37 317.05 L495.67 317.00 L494.95 316.94 L494.24 316.86 L493.52 316.77 L492.80 316.67 L492.08 316.55 L491.36 316.41 L490.63 316.26 L489.91 316.10 L489.18 315.92 L488.45 315.73 L487.73 315.52 L487.00 315.30 L486.27 315.06 L485.55 314.80 L484.83 314.54 L484.10 314.25 L483.38 313.95 L482.66 313.64 L481.95 313.31 L481.23 312.96 L480.52 312.60 L479.82 312.22 L479.11 311.83 L478.41 311.42 L477.72 311.00 L477.03 310.56 L476.34 310.11 L475.66 309.64 L474.99 309.16 L474.32 308.66 L473.66 308.15 L473.00 307.62 L472.35 307.08 L471.71 306.52 L471.07 305.94 L470.45 305.36 L469.83 304.75 L469.22 304.14 L468.62 303.51 L468.03 302.86 L467.44 302.20 L466.87 301.53 L466.31 300.84 L465.75 300.14 L465.21 299.43 L464.68 298.70 L464.16 297.96 L463.65 297.21 L463.16 296.44 L462.67 295.66 L462.20 294.87 L461.74 294.07 L461.29 293.25 L460.86 292.42 L460.44 291.58 L460.04 290.73 L459.64 289.87 L459.27 289.00 L458.90 288.12 L458.56 287.22 L458.22 286.32 L457.91 285.40 L457.61 284.48 L457.32 283.55 L457.05 282.60 L456.80 281.65 L456.56 280.69 L456.34 279.73 L456.14 278.75 L455.95 277.77 L455.78 276.77 L455.63 275.78 L455.50 274.77 L455.38 273.76 L455.28 272.74 L455.21 271.72 L455.15 270.69 L455.10 269.66 L455.08 268.62 L455.08 267.58 L455.09 266.53 L455.13 265.48 L455.18 264.42 L455.25 263.36 L455.35 262.30 L455.46 261.24 L455.59 260.18 L455.75 259.11 L455.92 258.04 L456.11 256.98 L456.32 255.91 L456.56 254.84 L456.81 253.77 L457.09 252.70 L457.38 251.64 L457.70 250.57 L458.03 249.51 L458.39 248.45 L458.77 247.39 L459.16 246.33 L459.58 245.28 L460.02 244.23 L460.48 243.19 L460.96 242.15 L461.46 241.12 L461.98 240.09 L462.52 239.07 L463.09 238.05 L463.67 237.04 L464.27 236.04 L464.90 235.04 L465.54 234.06 L466.20 233.08 L466.89 232.11 L467.59 231.15 L468.31 230.19 L469.06 229.25 L469.82 228.32 L470.60 227.40 L471.40 226.49 L472.22 225.59 L473.06 224.70 L473.92 223.83 L474.80 222.97 L475.69 222.12 L476.61 221.28 L477.54 220.46 L478.49 219.65 L479.45 218.86 L480.44 218.08 L481.44 217.32 L482.46 216.57 L483.49 215.84 L484.55 215.13 L485.61 214.43 L486.70 213.75 L487.80 213.08 L488.91 212.44 L490.04 211.81 L491.19 211.20 L492.35 210.61 L493.52 210.03 L494.71 209.48 L495.91 208.95 L497.13 208.43 L498.35 207.94 L499.59 207.47 L500.85 207.02 L502.11 206.59 L503.39 206.18 L504.68 205.79 L505.97 205.42 L507.28 205.08 L508.60 204.76 L509.93 204.46 L511.27 204.19 L512.61 203.93 L513.97 203.70 L515.33 203.50 L516.70 203.32 L518.08 203.16 L519.47 203.03 L520.86 202.92 L522.25 202.83 L523.66 202.77 L525.06 202.74 L526.48 202.73 L527.89 202.75 L529.31 202.79 L530.74 202.85 L532.17 202.95 L533.59 203.06 L535.03 203.21 L536.46 203.38 L537.89 203.57 L539.33 203.79 L540.76 204.04 L542.19 204.32 L543.63 204.62 L545.06 204.94 L546.49 205.30 L547.91 205.68 L549.34 206.08 L550.76 206.52 L552.18 206.98 L553.59 207.46 L555.00 207.98 L556.40 208.51 L557.80 209.08 L559.19 209.67 L560.57 210.29 L561.95 210.93 L563.31 211.60 L564.67 212.30 L566.03 213.02 L567.37 213.77 L568.70 214.55 L570.02 215.35 L571.33 216.17 L572.63 217.02 L573.92 217.90 L575.20 218.80 L576.46 219.73 L577.71 220.68 L578.95 221.66 L580.17 222.66 L581.38 223.68 L582.57 224.73 L583.75 225.80 L584.91 226.90 L586.05 228.02 L587.18 229.16 L588.29 230.33 L589.38 231.52 L590.45 232.73 L591.51 233.96 L592.54 235.22 L593.56 236.49 L594.55 237.79 L595.53 239.11 L596.48 240.45 L597.42 241.81 L598.33 243.19 L599.22 244.58 L600.08 246.00 L600.92 247.44 L601.74 248.89 L602.54 250.36 L603.31 251.85 L604.06 253.36 L604.78 254.89 L605.48 256.43 L606.15 257.98 L606.79 259.56 L607.41 261.14 L608.01 262.75 L608.57 264.36 L609.11 265.99 L609.62 267.64 L610.10 269.29 L610.56 270.96 L610.98 272.64 L611.38 274.34 L611.75 276.04 L612.09 277.75 L612.40 279.48 L612.68 281.21 L612.93 282.95 L613.15 284.70 L613.34 286.46 L613.50 288.23 L613.62 290.00 L613.72 291.78 L613.79 293.56 L613.82 295.35 L613.82 297.14 L613.79 298.94 L613.73 300.74 L613.64 302.55 L613.51 304.36 L613.36 306.17 L613.17 307.98 L612.95 309.79 L612.69 311.60 L612.41 313.41 L612.09 315.22 L611.74 317.02 L611.35 318.83 L610.93 320.63 L610.48 322.43 L610.00 324.23 L609.49 326.02 L608.94 327.80 L608.36 329.58 L607.74 331.35 L607.10 333.12 L606.42 334.88 L605.71 336.63 L604.97 338.37 L604.19 340.10 L603.38 341.82 L602.54 343.53 L601.67 345.23 L600.77 346.92 L599.84 348.60 L598.87 350.26 L597.87 351.91 L596.84 353.55 L595.78 355.17 L594.69 356.77 L593.57 358.36 L592.42 359.93 L591.24 361.49 L590.03 363.03 L588.79 364.55 L587.52 366.05 L586.22 367.53 L584.89 368.99 L583.54 370.43 L582.15 371.86 L580.74 373.26 L579.30 374.63 L577.84 375.99 L576.34 377.32 L574.82 378.63 L573.28 379.91 L571.71 381.17 L570.11 382.40 L568.49 383.61 L566.84 384.80 L565.17 385.95 L563.48 387.08 L561.76 388.18 L560.02 389.25 L558.26 390.30 L556.48 391.32 L554.67 392.30 L552.85 393.26 L551.00 394.19 L549.14 395.08 L547.25 395.95 L545.35 396.78 L543.42 397.58 L541.48 398.35 L539.53 399.09 L537.55 399.79 L535.56 400.46 L533.56 401.10 L531.54 401.70 L529.50 402.27 L527.45 402.80 L525.39 403.30 L523.32 403.76 L521.23 404.19 L519.13 404.58 L517.02 404.94 L514.90 405.26 L512.78 405.54 L510.64 405.79 L508.49 406.00 L506.34 406.17 L504.18 406.30 L502.01 406.40 L499.84 406.46 L497.66 406.48 L495.48 406.46 L493.30 406.41 L491.11 406.31 L488.92 406.18 L486.72 406.01 L484.53 405.80 L482.34 405.55 L480.14 405.26 L477.95 404.94 L475.76 404.57 L473.57 404.17 L471.39 403.72 L469.21 403.24 L467.03 402.72 L464.86 402.16 L462.70 401.56 L460.54 400.92 L458.39 400.24 L456.25 399.52 L454.11 398.77 L451.99 397.97 L449.87 397.14 L447.77 396.27 L445.68 395.36 L443.60 394.41 L441.53 393.42 L439.48 392.40 L437.44 391.34 L435.42 390.24 L433.41 389.10 L431.42 387.93 L429.45 386.72 L427.49 385.47 L425.55 384.19 L423.64 382.87 L421.74 381.51 L419.86 380.12 L418.00 378.69 L416.17 377.23 L414.36 375.74 L412.57 374.21 L410.80 372.64 L409.06 371.04 L407.34 369.41 L405.65 367.75 L403.99 366.05 L402.35 364.33 L400.74 362.57 L399.16 360.78 L397.61 358.95 L396.09 357.10 L394.59 355.22 L393.13 353.31 L391.70 351.37 L390.30 349.41 L388.93 347.41 L387.59 345.39 L386.29 343.34 L385.02 341.26 L383.79 339.16 L382.59 337.04 L381.42 334.89 L380.29 332.72 L379.20 330.52 L378.15 328.30 L377.13 326.06 L376.15 323.79 L375.20 321.51 L374.30 319.21 L373.43 316.88 L372.61 314.54 L371.82 312.18 L371.07 309.80 L370.36 307.41 L369.70 305.00 L369.07 302.57 L368.49 300.13 L367.95 297.67 L367.45 295.21 L366.99 292.73 L366.58 290.23 L366.21 287.73 L365.88 285.21 L365.59 282.69 L365.35 280.16 L365.15 277.62 L365.00 275.07 L364.89 272.51 L364.83 269.95 L364.81 267.39 L364.83 264.82 L364.90 262.24 L365.02 259.67 L365.18 257.09 L365.38 254.51 L365.63 251.93 L365.93 249.35 L366.27 246.77 L366.66 244.20 L367.09 241.62 L367.57 239.05 L368.09 236.49 L368.66 233.93 L369.28 231.38 L369.94 228.83 L370.65 226.29 L371.40 223.76 L372.19 221.24 L373.04 218.73 L373.92 216.23 L374.86 213.74 L375.83 211.27 L376.85 208.80 L377.92 206.36 L379.03 203.92 L380.18 201.51 L381.38 199.11 L382.62 196.72 L383.91 194.36 L385.24 192.01 L386.61 189.69 L388.02 187.38 L389.48 185.10 L390.98 182.84 L392.52 180.60 L394.10 178.38 L395.72 176.19 L397.38 174.03 L399.09 171.89 L400.83 169.78 L402.61 167.69 L404.43 165.63 L406.29 163.60 L408.19 161.61 L410.12 159.64 L412.09 157.70 L414.10 155.79 L416.15 153.92 L418.23 152.08 L420.34 150.27 L422.49 148.50 L424.68 146.76 L426.89 145.06 L429.14 143.39 L431.43 141.76 L433.74 140.17 L436.08 138.62 L438.46 137.11 L440.86 135.63 L443.30 134.20 L445.76 132.80 L448.25 131.45 L450.77 130.14 L453.31 128.87 L455.88 127.64 L458.47 126.45 L461.09 125.31 L463.73 124.22 L466.39 123.17 L469.08 122.16 L471.79 121.20 L474.52 120.28 L477.26 119.41 L480.03 118.59 L482.81 117.81 L485.61 117.09 L488.43 116.41 L491.27 115.77 L494.11 115.19 L496.98 114.66 L499.85 114.17 L502.74 113.74 L505.64 113.35 L508.55 113.01 L511.47 112.73 L514.40 112.49 L517.33 112.31 L520.28 112.18 L523.23 112.09 L526.18 112.06 L529.14 112.08 L532.10 112.15 L535.07 112.28 L538.04 112.45 L541.00 112.68 L543.97 112.96 L546.94 113.29 L549.90 113.68 L552.86 114.11 L555.82 114.60 L558.78 115.14 L561.72 115.73 L564.67 116.38 L567.60 117.07 L570.53 117.82 L573.44 118.62 L576.35 119.48 L579.24 120.38 L582.13 121.33 L585.00 122.34 L587.85 123.40 L590.69 124.51 L593.52 125.67 L596.33 126.88 L599.12 128.14 L601.89 129.45 L604.65 130.82 L607.38 132.23 L610.09 133.69 L612.78 135.20 L615.45 136.76 L618.09 138.36 L620.71 140.02 L623.30 141.72 L625.87 143.47 L628.41 145.27 L630.92 147.11 L633.40 149.00 L635.86 150.94 L638.28 152.92 L640.67 154.94 L643.02 157.01 L645.35 159.12 L647.64 161.28 L649.90 163.47 L652.12 165.71 L654.30 167.99 L656.45 170.32 L658.56 172.68 L660.63 175.08 L662.66 177.52 L664.65 180.00 L666.60 182.52 L668.51 185.07 L670.38 187.66 L672.20 190.29 L673.99 192.95 L675.72 195.64 L677.41 198.37 L679.06 201.13 L680.66 203.92 L682.21 206.75 L683.72 209.60 L685.18 212.49 L686.59 215.40 L687.95 218.34 L689.26 221.31 L690.52 224.30 L691.73 227.32 L692.89 230.37 L694.00 233.44 L695.06 236.53 L696.06 239.64 L697.01 242.78 L697.91 245.93 L698.75 249.10 L699.54 252.30 L700.27 255.51 L700.95 258.73 L701.57 261.97 L702.14 265.23 L702.65 268.50 L703.11 271.78 L703.51 275.08 L703.85 278.38 L704.14 281.70 L704.36 285.02 L704.53 288.35 L704.65 291.69 L704.70 295.04 L704.70 298.38 L704.64 301.74 L704.51 305.09 L704.34 308.45 L704.10 311.81 L703.80 315.16 L703.45 318.52 L703.03 321.87 L702.56 325.22 L702.03 328.57 L701.44 331.91 L700.79 335.24 L700.08 338.57 L699.32 341.89 L698.49 345.20 L697.61 348.49 L696.67 351.78 L695.67 355.05 L694.61 358.31 L693.50 361.56 L692.32 364.79 L691.09 368.00 L689.80 371.19 L688.46 374.37 L687.06 377.52 L685.60 380.66 L684.08 383.77 L682.51 386.86 L680.89 389.93 L679.21 392.97 L677.47 395.98 L675.68 398.97 L673.84 401.93 L671.94 404.86 L669.99 407.76 L667.99 410.63 L665.93 413.47 L663.83 416.28 L661.67 419.05 L659.46 421.79 L657.20 424.49 L654.90 427.16 L652.54 429.79 L650.14 432.38 L647.68 434.93 L645.19 437.45 L642.64 439.92 L640.05 442.35 L637.41 444.73 L634.73 447.08 L632.01 449.38 L629.24 451.63 L626.43 453.84 L623.58 456.01 L620.69 458.12 L617.76 460.19 L614.79 462.21 L611.78 464.18 L608.74 466.10 L605.65 467.97 L602.53 469.78 L599.38 471.55 L596.20 473.26 L592.98 474.92 L589.72 476.52 L586.44 478.07 L583.13 479.56 L579.78 481.00 L576.41 482.38 L573.01 483.70 L569.59 484.97 L566.14 486.18 L562.66 487.32 L559.16 488.41 L555.64 489.44 L552.10 490.41 L548.53 491.32 L544.95 492.17 L541.35 492.96 L537.73 493.68 L534.09 494.35 L530.44 494.95 L526.78 495.48 L523.10 495.96 L519.41 496.37 L515.71 496.72 L512.00 497.00 " fill="none" stroke="#E8DFA8" stroke-width="46" stroke-linecap="round" stroke-linejoin="round"></path>
  <path d="M700.78 636.37 L700.43 636.35 L700.08 636.33 L699.72 636.29 L699.37 636.25 L699.01 636.19 L698.65 636.13 L698.29 636.05 L697.93 635.97 L697.56 635.88 L697.20 635.77 L696.83 635.66 L696.47 635.54 L696.10 635.41 L695.74 635.26 L695.37 635.11 L695.01 634.94 L694.65 634.77 L694.29 634.59 L693.93 634.39 L693.57 634.19 L693.22 633.97 L692.86 633.75 L692.51 633.51 L692.16 633.27 L691.82 633.01 L691.47 632.75 L691.14 632.47 L690.80 632.19 L690.47 631.89 L690.14 631.59 L689.82 631.27 L689.50 630.95 L689.19 630.61 L688.88 630.27 L688.58 629.92 L688.28 629.55 L687.99 629.18 L687.71 628.80 L687.43 628.41 L687.16 628.01 L686.89 627.60 L686.63 627.18 L686.38 626.75 L686.14 626.32 L685.90 625.87 L685.68 625.42 L685.46 624.96 L685.25 624.49 L685.04 624.02 L684.85 623.53 L684.67 623.04 L684.49 622.54 L684.32 622.04 L684.17 621.52 L684.02 621.00 L683.88 620.48 L683.76 619.94 L683.64 619.40 L683.54 618.86 L683.44 618.31 L683.36 617.75 L683.28 617.19 L683.22 616.62 L683.17 616.04 L683.13 615.47 L683.11 614.88 L683.09 614.30 L683.09 613.71 L683.10 613.11 L683.12 612.51 L683.15 611.91 L683.20 611.31 L683.25 610.70 L683.33 610.09 L683.41 609.47 L683.51 608.86 L683.62 608.24 L683.74 607.62 L683.87 607.00 L684.02 606.38 L684.19 605.76 L684.36 605.14 L684.55 604.52 L684.76 603.90 L684.97 603.27 L685.20 602.65 L685.45 602.03 L685.71 601.41 L685.98 600.80 L686.26 600.18 L686.56 599.57 L686.88 598.95 L687.20 598.35 L687.54 597.74 L687.90 597.14 L688.27 596.54 L688.65 595.95 L689.04 595.35 L689.45 594.77 L689.88 594.19 L690.31 593.61 L690.76 593.04 L691.23 592.47 L691.71 591.92 L692.20 591.36 L692.70 590.82 L693.22 590.28 L693.75 589.74 L694.29 589.22 L694.85 588.70 L695.42 588.19 L696.00 587.69 L696.60 587.20 L697.20 586.71 L697.82 586.24 L698.46 585.78 L699.10 585.32 L699.76 584.88 L700.42 584.44 L701.10 584.02 L701.80 583.60 L702.50 583.20 L703.21 582.81 L703.94 582.43 L704.67 582.06 L705.42 581.71 L706.17 581.37 L706.94 581.04 L707.71 580.72 L708.50 580.41 L709.29 580.12 L710.10 579.85 L710.91 579.58 L711.73 579.34 L712.57 579.10 L713.40 578.88 L714.25 578.68 L715.11 578.49 L715.97 578.31 L716.84 578.15 L717.71 578.01 L718.60 577.88 L719.49 577.77 L720.38 577.67 L721.28 577.59 L722.19 577.53 L723.10 577.48 L724.02 577.45 L724.94 577.44 L725.87 577.44 L726.80 577.46 L727.73 577.50 L728.67 577.56 L729.60 577.63 L730.55 577.72 L731.49 577.83 L732.44 577.96 L733.39 578.11 L734.33 578.27 L735.29 578.45 L736.24 578.65 L737.19 578.87 L738.14 579.11 L739.09 579.37 L740.04 579.64 L740.99 579.93 L741.93 580.25 L742.88 580.58 L743.82 580.93 L744.76 581.29 L745.70 581.68 L746.63 582.09 L747.56 582.51 L748.49 582.95 L749.41 583.42 L750.32 583.90 L751.23 584.40 L752.14 584.92 L753.04 585.45 L753.93 586.01 L754.82 586.58 L755.70 587.17 L756.57 587.78 L757.43 588.41 L758.29 589.06 L759.13 589.73 L759.97 590.41 L760.80 591.11 L761.62 591.83 L762.43 592.57 L763.23 593.32 L764.01 594.09 L764.79 594.88 L765.56 595.69 L766.31 596.51 L767.05 597.35 L767.78 598.20 L768.49 599.07 L769.19 599.96 L769.88 600.87 L770.56 601.79 L771.21 602.72 L771.86 603.67 L772.49 604.64 L773.10 605.62 L773.70 606.61 L774.29 607.62 L774.85 608.65 L775.40 609.68 L775.94 610.74 L776.45 611.80 L776.95 612.88 L777.43 613.97 L777.89 615.07 L778.34 616.18 L778.76 617.31 L779.17 618.45 L779.56 619.60 L779.93 620.76 L780.27 621.93 L780.60 623.11 L780.91 624.30 L781.20 625.50 L781.47 626.71 L781.71 627.92 L781.94 629.15 L782.14 630.38 L782.32 631.63 L782.48 632.87 L782.62 634.13 L782.73 635.39 L782.83 636.66 L782.90 637.94 L782.95 639.21 L782.97 640.50 L782.97 641.79 L782.95 643.08 L782.91 644.38 L782.84 645.68 L782.75 646.98 L782.63 648.29 L782.49 649.59 L782.33 650.90 L782.15 652.21 L781.93 653.52 L781.70 654.83 L781.44 656.14 L781.16 657.45 L780.85 658.76 L780.52 660.07 L780.16 661.37 L779.78 662.68 L779.37 663.98 L778.94 665.27 L778.49 666.56 L778.01 667.85 L777.50 669.14 L776.98 670.41 L776.42 671.69 L775.85 672.95 L775.24 674.21 L774.62 675.46 L773.97 676.71 L773.30 677.94 L772.60 679.17 L771.88 680.39 L771.13 681.60 L770.36 682.80 L769.57 683.99 L768.75 685.17 L767.91 686.34 L767.05 687.49 L766.16 688.64 L765.25 689.77 L764.32 690.89 L763.36 691.99 L762.39 693.08 L761.39 694.16 L760.37 695.22 L759.33 696.26 L758.26 697.29 L757.18 698.31 L756.07 699.31 L754.94 700.29 L753.79 701.25 L752.63 702.19 L751.44 703.12 L750.23 704.03 L749.00 704.92 L747.76 705.79 L746.49 706.64 L745.21 707.47 L743.91 708.28 L742.59 709.06 L741.25 709.83 L739.90 710.58 L738.53 711.30 L737.14 712.00 L735.74 712.68 L734.32 713.33 L732.88 713.96 L731.43 714.57 L729.97 715.15 L728.49 715.71 L727.00 716.24 L725.50 716.75 L723.98 717.23 L722.45 717.69 L720.91 718.12 L719.35 718.52 L717.79 718.90 L716.21 719.25 L714.63 719.58 L713.03 719.87 L711.43 720.14 L709.82 720.38 L708.20 720.60 L706.57 720.78 L704.93 720.94 L703.29 721.07 L701.64 721.17 L699.98 721.24 L698.32 721.28 L696.66 721.29 L694.99 721.27 L693.31 721.23 L691.64 721.15 L689.96 721.04 L688.28 720.91 L686.59 720.74 L684.91 720.54 L683.23 720.32 L681.54 720.06 L679.86 719.77 L678.17 719.45 L676.49 719.10 L674.81 718.72 L673.14 718.31 L671.47 717.87 L669.80 717.40 L668.13 716.90 L666.47 716.37 L664.82 715.80 L663.17 715.21 L661.53 714.59 L659.90 713.93 L658.27 713.25 L656.65 712.53 L655.05 711.78 L653.45 711.01 L651.86 710.20 L650.28 709.37 L648.71 708.50 L647.16 707.61 L645.62 706.68 L644.09 705.73 L642.57 704.75 L641.07 703.74 L639.58 702.70 L638.11 701.63 L636.65 700.53 L635.21 699.40 L633.78 698.25 L632.38 697.07 L630.99 695.86 L629.61 694.63 L628.26 693.36 L626.93 692.07 L625.62 690.76 L624.32 689.42 L623.05 688.05 L621.80 686.66 L620.57 685.24 L619.37 683.80 L618.18 682.33 L617.02 680.84 L615.89 679.33 L614.77 677.79 L613.69 676.23 L612.62 674.65 L611.59 673.04 L610.58 671.42 L609.59 669.77 L608.64 668.10 L607.71 666.41 L606.80 664.70 L605.93 662.98 L605.09 661.23 L604.27 659.46 L603.48 657.68 L602.73 655.88 L602.00 654.06 L601.30 652.23 L600.64 650.38 L600.00 648.51 L599.40 646.63 L598.83 644.74 L598.29 642.83 L597.79 640.90 L597.31 638.97 L596.87 637.02 L596.47 635.06 L596.09 633.09 L595.75 631.11 L595.45 629.12 L595.18 627.12 L594.94 625.11 L594.74 623.10 L594.58 621.07 L594.44 619.04 L594.35 617.00 L594.29 614.96 L594.27 612.91 L594.28 610.86 L594.33 608.80 L594.41 606.75 L594.53 604.68 L594.69 602.62 L594.88 600.55 L595.11 598.49 L595.38 596.42 L595.68 594.36 L596.02 592.30 L596.40 590.23 L596.81 588.18 L597.27 586.12 L597.75 584.07 L598.28 582.02 L598.84 579.98 L599.44 577.95 L600.08 575.92 L600.75 573.90 L601.46 571.89 L602.20 569.88 L602.99 567.89 L603.81 565.90 L604.66 563.93 L605.55 561.96 L606.48 560.01 L607.45 558.08 L608.45 556.15 L609.48 554.24 L610.55 552.34 L611.66 550.46 L612.80 548.60 L613.97 546.75 L615.18 544.92 L616.43 543.11 L617.71 541.31 L619.02 539.54 L620.36 537.78 L621.74 536.05 L623.15 534.33 L624.60 532.64 L626.08 530.97 L627.58 529.32 L629.12 527.70 L630.70 526.10 L632.30 524.52 L633.93 522.97 L635.59 521.45 L637.28 519.95 L639.01 518.48 L640.76 517.04 L642.53 515.63 L644.34 514.24 L646.18 512.89 L648.04 511.56 L649.92 510.26 L651.84 509.00 L653.78 507.76 L655.74 506.56 L657.73 505.39 L659.74 504.25 L661.77 503.15 L663.83 502.08 L665.91 501.04 L668.02 500.04 L670.14 499.08 L672.28 498.14 L674.45 497.25 L676.63 496.39 L678.83 495.57 L681.05 494.79 L683.29 494.04 L685.54 493.33 L687.81 492.66 L690.10 492.03 L692.40 491.43 L694.71 490.88 L697.04 490.37 L699.38 489.89 L701.74 489.46 L704.10 489.06 L706.48 488.71 L708.86 488.40 L711.26 488.13 L713.66 487.90 L716.07 487.71 L718.49 487.57 L720.92 487.46 L723.35 487.40 L725.79 487.38 L728.23 487.41 L730.67 487.47 L733.12 487.58 L735.57 487.73 L738.02 487.93 L740.47 488.17 L742.92 488.45 L745.37 488.77 L747.82 489.14 L750.26 489.56 L752.70 490.01 L755.14 490.51 L757.57 491.05 L760.00 491.64 L762.42 492.27 L764.83 492.94 L767.24 493.65 L769.64 494.41 L772.02 495.21 L774.40 496.06 L776.77 496.94 L779.12 497.87 L781.46 498.85 L783.79 499.86 L786.11 500.92 L788.41 502.02 L790.69 503.16 L792.96 504.34 L795.21 505.57 L797.44 506.83 L799.65 508.14 L801.85 509.49 L804.02 510.88 L806.17 512.30 L808.30 513.77 L810.41 515.28 L812.50 516.82 L814.56 518.41 L816.60 520.03 L818.61 521.69 L820.59 523.39 L822.55 525.13 L824.48 526.90 L826.39 528.71 L828.26 530.56 L830.11 532.44 L831.92 534.35 L833.71 536.30 L835.46 538.29 L837.18 540.31 L838.87 542.36 L840.53 544.44 L842.15 546.56 L843.73 548.70 L845.29 550.88 L846.80 553.09 L848.28 555.33 L849.72 557.59 L851.13 559.89 L852.50 562.21 L853.82 564.56 L855.11 566.94 L856.36 569.34 L857.57 571.77 L858.74 574.23 L859.87 576.70 L860.96 579.20 L862.00 581.72 L863.00 584.27 L863.96 586.83 L864.88 589.42 L865.75 592.03 L866.57 594.65 L867.36 597.29 L868.09 599.95 L868.79 602.63 L869.43 605.32 L870.03 608.03 L870.59 610.75 L871.09 613.49 L871.55 616.24 L871.97 619.00 L872.33 621.77 L872.65 624.55 L872.92 627.34 L873.14 630.14 L873.31 632.94 L873.44 635.76 L873.51 638.58 L873.54 641.40 L873.52 644.23 L873.44 647.07 L873.32 649.90 L873.15 652.74 L872.93 655.58 L872.66 658.42 L872.34 661.25 L871.96 664.09 L871.54 666.92 L871.07 669.75 L870.55 672.58 L869.98 675.40 L869.36 678.21 L868.69 681.02 L867.97 683.82 L867.20 686.61 L866.38 689.39 L865.51 692.16 L864.59 694.92 L863.62 697.66 L862.60 700.39 L861.54 703.11 L860.42 705.82 L859.26 708.50 L858.05 711.18 L856.78 713.83 L855.48 716.46 L854.12 719.08 L852.72 721.68 L851.27 724.25 L849.77 726.80 L848.23 729.33 L846.64 731.84 L845.00 734.32 L843.32 736.78 L841.59 739.21 L839.82 741.61 L838.01 743.99 L836.15 746.33 L834.25 748.65 L832.30 750.94 L830.32 753.20 L828.29 755.42 L826.22 757.61 L824.11 759.77 L821.95 761.90 L819.76 763.99 L817.53 766.04 L815.26 768.06 L812.96 770.05 L810.61 771.99 L808.23 773.90 L805.81 775.76 L803.36 777.59 L800.87 779.38 L798.35 781.12 L795.79 782.83 L793.20 784.49 L790.58 786.11 L787.93 787.68 L785.25 789.21 L782.53 790.70 L779.79 792.14 L777.02 793.53 L774.22 794.88 L771.39 796.18 L768.54 797.43 L765.67 798.64 L762.76 799.79 L759.84 800.90 L756.89 801.96 L753.92 802.97 L750.93 803.92 L747.92 804.83 L744.88 805.69 L741.83 806.49 L738.77 807.24 L735.68 807.94 L732.58 808.58 L729.47 809.18 L726.34 809.72 L723.19 810.20 L720.04 810.63 L716.87 811.01 L713.70 811.33 L710.51 811.60 L707.31 811.81 L704.11 811.97 L700.90 812.07 L697.69 812.11 L694.47 812.10 L691.25 812.04 L688.02 811.91 L684.80 811.73 L681.57 811.50 L678.34 811.21 L675.11 810.86 L671.89 810.45 L668.67 809.99 L665.45 809.47 L662.24 808.90 L659.04 808.27 L655.84 807.58 L652.65 806.83 L649.47 806.03 L646.30 805.18 L643.14 804.26 L639.99 803.29 L636.86 802.27 L633.74 801.19 L630.64 800.05 L627.55 798.86 L624.48 797.61 L621.43 796.31 L618.39 794.96 L615.38 793.55 L612.39 792.08 L609.42 790.56 L606.47 788.99 L603.55 787.37 L600.65 785.69 L597.78 783.96 L594.93 782.18 L592.11 780.34 L589.32 778.46 L586.56 776.52 L583.83 774.54 L581.14 772.50 L578.47 770.42 L575.84 768.29 L573.24 766.10 L570.68 763.88 L568.15 761.60 L565.66 759.28 L563.21 756.91 L560.79 754.50 L558.42 752.04 L556.09 749.53 L553.79 746.99 L551.54 744.40 L549.33 741.77 L547.16 739.10 L545.04 736.39 L542.96 733.63 L540.93 730.84 L538.95 728.01 L537.01 725.14 L535.12 722.24 L533.28 719.30 L531.48 716.32 L529.74 713.31 L528.05 710.27 L526.40 707.19 L524.81 704.08 L523.28 700.94 L521.79 697.77 L520.36 694.58 L518.98 691.35 L517.66 688.09 L516.39 684.81 L515.18 681.50 L514.02 678.17 L512.93 674.82 L511.88 671.44 L510.90 668.04 L509.97 664.62 L509.11 661.18 L508.30 657.72 L507.55 654.24 L506.86 650.75 L506.23 647.24 L505.66 643.72 L505.15 640.18 L504.70 636.63 L504.31 633.07 L503.99 629.50 L503.73 625.91 L503.52 622.32 L503.39 618.73 L503.31 615.12 L503.29 611.51 L503.34 607.90 L503.45 604.29 L503.63 600.67 L503.87 597.05 L504.17 593.43 L504.53 589.82 L504.96 586.20 L505.45 582.59 L506.00 578.99 L506.62 575.39 L507.30 571.80 L508.04 568.21 L508.84 564.64 L509.71 561.07 L510.65 557.52 L511.64 553.98 L512.70 550.45 L513.82 546.94 L515.00 543.44 L516.24 539.96 L517.55 536.50 L518.91 533.06 L520.34 529.63 L521.83 526.23 L523.38 522.85 L524.99 519.50 " fill="none" stroke="#E8DFA8" stroke-width="46" stroke-linecap="round" stroke-linejoin="round"></path>
  <path d="M309.90 613.31 L310.09 613.01 L310.29 612.72 L310.50 612.43 L310.72 612.14 L310.94 611.86 L311.18 611.58 L311.42 611.30 L311.68 611.03 L311.94 610.76 L312.21 610.50 L312.49 610.24 L312.78 609.99 L313.08 609.74 L313.38 609.49 L313.70 609.25 L314.02 609.02 L314.35 608.79 L314.69 608.57 L315.04 608.36 L315.40 608.15 L315.76 607.95 L316.13 607.76 L316.51 607.57 L316.90 607.39 L317.29 607.22 L317.69 607.06 L318.10 606.90 L318.51 606.75 L318.93 606.61 L319.36 606.48 L319.80 606.36 L320.24 606.25 L320.68 606.14 L321.13 606.05 L321.59 605.96 L322.05 605.89 L322.52 605.82 L323.00 605.77 L323.47 605.72 L323.96 605.69 L324.44 605.66 L324.93 605.65 L325.43 605.64 L325.93 605.65 L326.43 605.67 L326.94 605.70 L327.44 605.74 L327.95 605.79 L328.47 605.85 L328.98 605.93 L329.50 606.01 L330.02 606.11 L330.54 606.22 L331.07 606.34 L331.59 606.47 L332.11 606.62 L332.64 606.78 L333.17 606.94 L333.69 607.13 L334.22 607.32 L334.74 607.53 L335.26 607.74 L335.79 607.97 L336.31 608.22 L336.83 608.47 L337.35 608.74 L337.86 609.02 L338.38 609.31 L338.89 609.62 L339.40 609.94 L339.90 610.26 L340.40 610.61 L340.90 610.96 L341.39 611.33 L341.88 611.71 L342.36 612.10 L342.84 612.50 L343.32 612.92 L343.79 613.35 L344.25 613.79 L344.71 614.24 L345.16 614.70 L345.60 615.18 L346.04 615.66 L346.47 616.16 L346.89 616.67 L347.31 617.19 L347.71 617.73 L348.11 618.27 L348.50 618.83 L348.88 619.39 L349.26 619.97 L349.62 620.56 L349.97 621.15 L350.32 621.76 L350.65 622.38 L350.98 623.01 L351.29 623.65 L351.59 624.30 L351.89 624.95 L352.17 625.62 L352.44 626.29 L352.69 626.98 L352.94 627.67 L353.17 628.37 L353.39 629.08 L353.60 629.80 L353.80 630.53 L353.98 631.26 L354.15 632.00 L354.31 632.75 L354.45 633.50 L354.58 634.27 L354.69 635.03 L354.79 635.81 L354.88 636.59 L354.95 637.37 L355.01 638.16 L355.05 638.96 L355.08 639.76 L355.09 640.57 L355.09 641.38 L355.07 642.19 L355.04 643.01 L354.99 643.83 L354.92 644.65 L354.84 645.47 L354.74 646.30 L354.63 647.13 L354.50 647.97 L354.36 648.80 L354.19 649.64 L354.01 650.47 L353.82 651.31 L353.61 652.14 L353.38 652.98 L353.13 653.82 L352.87 654.65 L352.59 655.49 L352.29 656.32 L351.98 657.15 L351.65 657.98 L351.30 658.81 L350.94 659.63 L350.56 660.45 L350.16 661.27 L349.74 662.08 L349.31 662.89 L348.86 663.69 L348.39 664.49 L347.91 665.29 L347.41 666.08 L346.89 666.86 L346.36 667.64 L345.81 668.41 L345.24 669.17 L344.66 669.92 L344.06 670.67 L343.44 671.41 L342.81 672.14 L342.16 672.87 L341.49 673.58 L340.81 674.29 L340.12 674.98 L339.40 675.67 L338.67 676.34 L337.93 677.01 L337.17 677.66 L336.40 678.30 L335.61 678.93 L334.81 679.55 L333.99 680.15 L333.16 680.75 L332.31 681.33 L331.45 681.89 L330.57 682.45 L329.68 682.98 L328.78 683.51 L327.87 684.02 L326.94 684.52 L326.00 685.00 L325.05 685.46 L324.08 685.91 L323.11 686.34 L322.12 686.76 L321.12 687.16 L320.11 687.55 L319.09 687.91 L318.06 688.26 L317.01 688.59 L315.96 688.91 L314.90 689.21 L313.83 689.48 L312.75 689.74 L311.66 689.98 L310.56 690.20 L309.46 690.41 L308.35 690.59 L307.23 690.75 L306.10 690.90 L304.96 691.02 L303.82 691.13 L302.68 691.21 L301.53 691.27 L300.37 691.31 L299.21 691.33 L298.04 691.34 L296.87 691.31 L295.70 691.27 L294.52 691.21 L293.34 691.12 L292.16 691.02 L290.98 690.89 L289.79 690.74 L288.60 690.56 L287.42 690.37 L286.23 690.15 L285.04 689.91 L283.85 689.65 L282.66 689.37 L281.48 689.06 L280.29 688.74 L279.11 688.38 L277.93 688.01 L276.75 687.62 L275.58 687.20 L274.41 686.76 L273.24 686.29 L272.08 685.81 L270.92 685.30 L269.77 684.77 L268.63 684.21 L267.49 683.64 L266.36 683.04 L265.23 682.42 L264.11 681.78 L263.00 681.11 L261.90 680.42 L260.81 679.72 L259.73 678.98 L258.66 678.23 L257.59 677.46 L256.54 676.66 L255.50 675.85 L254.47 675.01 L253.45 674.15 L252.45 673.27 L251.46 672.37 L250.48 671.45 L249.51 670.51 L248.56 669.55 L247.62 668.56 L246.70 667.56 L245.79 666.54 L244.90 665.50 L244.02 664.44 L243.16 663.37 L242.32 662.27 L241.50 661.15 L240.69 660.02 L239.90 658.87 L239.13 657.70 L238.37 656.52 L237.64 655.32 L236.93 654.10 L236.23 652.86 L235.56 651.61 L234.90 650.35 L234.27 649.06 L233.66 647.77 L233.06 646.46 L232.49 645.13 L231.95 643.79 L231.42 642.44 L230.92 641.07 L230.44 639.69 L229.99 638.30 L229.55 636.90 L229.14 635.48 L228.76 634.06 L228.40 632.62 L228.06 631.17 L227.75 629.72 L227.47 628.25 L227.21 626.78 L226.97 625.29 L226.76 623.80 L226.58 622.30 L226.43 620.79 L226.30 619.28 L226.19 617.76 L226.12 616.23 L226.07 614.70 L226.04 613.16 L226.05 611.62 L226.08 610.08 L226.14 608.53 L226.23 606.98 L226.34 605.42 L226.48 603.87 L226.66 602.31 L226.85 600.75 L227.08 599.19 L227.34 597.63 L227.62 596.08 L227.93 594.52 L228.27 592.96 L228.64 591.41 L229.04 589.86 L229.47 588.31 L229.92 586.77 L230.41 585.23 L230.92 583.69 L231.46 582.16 L232.03 580.64 L232.63 579.12 L233.25 577.61 L233.90 576.11 L234.59 574.61 L235.30 573.12 L236.04 571.65 L236.80 570.18 L237.60 568.72 L238.42 567.27 L239.27 565.83 L240.15 564.41 L241.05 562.99 L241.98 561.59 L242.94 560.21 L243.93 558.83 L244.94 557.47 L245.98 556.13 L247.05 554.80 L248.14 553.48 L249.25 552.19 L250.40 550.90 L251.57 549.64 L252.76 548.39 L253.98 547.17 L255.22 545.96 L256.49 544.77 L257.78 543.59 L259.09 542.44 L260.43 541.31 L261.79 540.21 L263.17 539.12 L264.58 538.05 L266.01 537.01 L267.46 535.99 L268.93 534.99 L270.42 534.02 L271.93 533.07 L273.47 532.15 L275.02 531.25 L276.59 530.37 L278.18 529.52 L279.79 528.70 L281.42 527.91 L283.06 527.14 L284.73 526.40 L286.40 525.68 L288.10 525.00 L289.81 524.34 L291.54 523.71 L293.28 523.11 L295.03 522.54 L296.80 522.00 L298.59 521.49 L300.38 521.02 L302.19 520.57 L304.01 520.15 L305.84 519.76 L307.68 519.41 L309.54 519.08 L311.40 518.79 L313.27 518.53 L315.15 518.30 L317.04 518.11 L318.93 517.95 L320.83 517.82 L322.74 517.72 L324.65 517.66 L326.57 517.63 L328.50 517.64 L330.42 517.68 L332.35 517.75 L334.29 517.86 L336.22 518.00 L338.16 518.18 L340.10 518.39 L342.03 518.63 L343.97 518.91 L345.91 519.23 L347.84 519.57 L349.78 519.96 L351.71 520.38 L353.63 520.83 L355.56 521.32 L357.47 521.84 L359.39 522.40 L361.29 522.99 L363.19 523.62 L365.08 524.28 L366.97 524.98 L368.85 525.71 L370.71 526.47 L372.57 527.27 L374.42 528.11 L376.25 528.98 L378.08 529.88 L379.89 530.81 L381.69 531.78 L383.47 532.79 L385.25 533.82 L387.00 534.89 L388.74 536.00 L390.47 537.13 L392.18 538.30 L393.87 539.50 L395.54 540.73 L397.20 542.00 L398.83 543.29 L400.45 544.62 L402.05 545.98 L403.62 547.36 L405.18 548.78 L406.71 550.23 L408.22 551.71 L409.70 553.22 L411.17 554.75 L412.61 556.32 L414.02 557.91 L415.41 559.53 L416.77 561.18 L418.11 562.85 L419.42 564.56 L420.70 566.28 L421.95 568.04 L423.18 569.82 L424.38 571.62 L425.54 573.45 L426.68 575.30 L427.79 577.18 L428.86 579.07 L429.91 580.99 L430.92 582.94 L431.90 584.90 L432.85 586.88 L433.76 588.89 L434.64 590.91 L435.49 592.96 L436.30 595.02 L437.08 597.10 L437.83 599.19 L438.53 601.31 L439.21 603.44 L439.84 605.58 L440.44 607.74 L441.00 609.92 L441.53 612.11 L442.02 614.31 L442.47 616.52 L442.88 618.75 L443.26 620.99 L443.59 623.23 L443.89 625.49 L444.15 627.76 L444.36 630.03 L444.54 632.31 L444.68 634.60 L444.78 636.90 L444.84 639.20 L444.86 641.51 L444.84 643.82 L444.78 646.13 L444.68 648.45 L444.53 650.77 L444.35 653.09 L444.12 655.41 L443.86 657.74 L443.55 660.06 L443.20 662.38 L442.81 664.69 L442.38 667.01 L441.91 669.32 L441.40 671.63 L440.84 673.93 L440.25 676.22 L439.61 678.51 L438.93 680.79 L438.21 683.07 L437.45 685.33 L436.65 687.59 L435.81 689.83 L434.93 692.07 L434.01 694.29 L433.04 696.50 L432.04 698.70 L431.00 700.88 L429.91 703.05 L428.79 705.20 L427.63 707.33 L426.43 709.45 L425.19 711.55 L423.91 713.64 L422.59 715.70 L421.23 717.75 L419.84 719.77 L418.41 721.77 L416.94 723.76 L415.43 725.71 L413.89 727.65 L412.31 729.56 L410.69 731.45 L409.04 733.31 L407.36 735.15 L405.64 736.96 L403.88 738.74 L402.09 740.49 L400.27 742.22 L398.41 743.91 L396.53 745.58 L394.61 747.22 L392.65 748.82 L390.67 750.40 L388.66 751.94 L386.62 753.45 L384.54 754.92 L382.44 756.36 L380.31 757.77 L378.15 759.14 L375.97 760.48 L373.75 761.78 L371.52 763.04 L369.25 764.27 L366.96 765.46 L364.65 766.61 L362.31 767.72 L359.95 768.79 L357.57 769.83 L355.17 770.82 L352.75 771.77 L350.30 772.68 L347.84 773.55 L345.35 774.38 L342.85 775.17 L340.33 775.91 L337.80 776.61 L335.25 777.27 L332.68 777.89 L330.10 778.46 L327.50 778.98 L324.89 779.46 L322.27 779.90 L319.64 780.29 L317.00 780.64 L314.35 780.94 L311.68 781.19 L309.01 781.40 L306.34 781.56 L303.65 781.68 L300.96 781.75 L298.27 781.77 L295.57 781.75 L292.86 781.67 L290.16 781.56 L287.45 781.39 L284.74 781.17 L282.03 780.91 L279.32 780.60 L276.62 780.25 L273.91 779.84 L271.21 779.39 L268.51 778.89 L265.82 778.34 L263.14 777.74 L260.46 777.10 L257.78 776.41 L255.12 775.67 L252.46 774.88 L249.82 774.05 L247.18 773.17 L244.56 772.24 L241.95 771.27 L239.35 770.24 L236.77 769.17 L234.21 768.06 L231.65 766.90 L229.12 765.69 L226.60 764.43 L224.10 763.14 L221.62 761.79 L219.16 760.40 L216.72 758.97 L214.31 757.49 L211.91 755.96 L209.54 754.39 L207.19 752.78 L204.87 751.13 L202.57 749.43 L200.30 747.69 L198.06 745.91 L195.85 744.09 L193.66 742.23 L191.50 740.32 L189.38 738.38 L187.28 736.39 L185.22 734.37 L183.19 732.31 L181.19 730.21 L179.23 728.07 L177.30 725.89 L175.40 723.68 L173.54 721.43 L171.72 719.15 L169.94 716.83 L168.19 714.48 L166.49 712.10 L164.82 709.68 L163.19 707.23 L161.60 704.75 L160.06 702.23 L158.55 699.69 L157.09 697.12 L155.67 694.51 L154.30 691.88 L152.97 689.23 L151.68 686.54 L150.44 683.83 L149.24 681.10 L148.09 678.34 L146.99 675.55 L145.93 672.75 L144.92 669.92 L143.96 667.07 L143.05 664.20 L142.18 661.31 L141.37 658.40 L140.60 655.48 L139.89 652.54 L139.22 649.58 L138.61 646.60 L138.05 643.61 L137.54 640.61 L137.08 637.59 L136.67 634.57 L136.31 631.53 L136.01 628.48 L135.76 625.42 L135.56 622.36 L135.42 619.29 L135.33 616.21 L135.29 613.12 L135.31 610.03 L135.38 606.94 L135.50 603.84 L135.68 600.75 L135.91 597.65 L136.20 594.55 L136.54 591.46 L136.93 588.36 L137.38 585.27 L137.89 582.18 L138.44 579.10 L139.06 576.02 L139.72 572.96 L140.44 569.89 L141.22 566.84 L142.05 563.80 L142.93 560.77 L143.87 557.75 L144.86 554.74 L145.90 551.74 L147.00 548.76 L148.15 545.80 L149.36 542.85 L150.62 539.92 L151.92 537.01 L153.29 534.12 L154.70 531.24 L156.17 528.39 L157.68 525.56 L159.25 522.76 L160.87 519.97 L162.54 517.22 L164.26 514.48 L166.03 511.78 L167.84 509.10 L169.71 506.45 L171.62 503.83 L173.59 501.24 L175.60 498.68 L177.65 496.16 L179.76 493.66 L181.91 491.20 L184.10 488.78 L186.34 486.39 L188.62 484.04 L190.95 481.72 L193.32 479.44 L195.73 477.20 L198.19 475.00 L200.68 472.84 L203.22 470.72 L205.80 468.64 L208.41 466.60 L211.07 464.61 L213.76 462.66 L216.48 460.76 L219.25 458.90 L222.05 457.08 L224.88 455.32 L227.75 453.60 L230.65 451.93 L233.59 450.30 L236.56 448.73 L239.55 447.21 L242.58 445.73 L245.63 444.31 L248.72 442.94 L251.83 441.62 L254.97 440.36 L258.13 439.14 L261.32 437.98 L264.53 436.88 L267.76 435.83 L271.02 434.83 L274.30 433.89 L277.60 433.01 L280.91 432.18 L284.25 431.41 L287.60 430.70 L290.97 430.04 L294.35 429.44 L297.75 428.90 L301.16 428.42 L304.58 428.00 L308.01 427.64 L311.46 427.33 L314.91 427.09 L318.37 426.90 L321.84 426.78 L325.31 426.71 L328.79 426.71 L332.27 426.76 L335.76 426.88 L339.24 427.06 L342.73 427.29 L346.22 427.59 L349.71 427.95 L353.19 428.37 L356.67 428.86 L360.14 429.40 L363.61 430.00 L367.08 430.67 L370.53 431.39 L373.98 432.18 L377.42 433.03 L380.84 433.94 L384.25 434.90 L387.65 435.93 L391.04 437.02 L394.41 438.17 L397.76 439.38 L401.10 440.65 L404.42 441.98 L407.72 443.36 L411.00 444.81 L414.25 446.32 L417.48 447.88 L420.69 449.50 L423.88 451.18 L427.04 452.91 L430.17 454.70 L433.28 456.55 L436.35 458.46 L439.40 460.42 L442.41 462.43 L445.39 464.50 L448.34 466.62 L451.26 468.80 L454.14 471.03 L456.99 473.31 L459.80 475.64 L462.57 478.03 L465.30 480.46 L467.99 482.95 L470.65 485.48 L473.26 488.07 L475.83 490.70 L478.35 493.38 L480.84 496.10 L483.27 498.88 L485.66 501.69 L488.01 504.55 L490.31 507.46 L492.56 510.41 L494.76 513.40 L496.91 516.43 L499.01 519.50 " fill="none" stroke="#E8DFA8" stroke-width="46" stroke-linecap="round" stroke-linejoin="round"></path>
</svg>